# xmcd CD database file
#
# Track frame offsets:
#	150
#	20450
#	46139
#	86758
#	123133
#	144195
#	161230
#	185597
#	205280
#
# Disc length: 2833 seconds
#
# Revision: 0
# Processed by: cddbd v1.4PL0 Copyright (c) Steve Scherf et al.
# Submitted via: CDex 1.40Release
#
DISCID=740b0f09
DTITLE=Sonny Rhodes - Texas Fender Bender
DYEAR=2003
DGENRE=Blues
TTITLE0=Pickin' Your Bones
TTITLE1=Drink Muddy Water
TTITLE2=Black Cat Phone
TTITLE3=Crazy Fool Blues
TTITLE4=T-Bone Shuffle
TTITLE5=Shoe On The Other Foot
TTITLE6=Blue Shadow
TTITLE7=Ya Ya
TTITLE8=Texas Fender Bender
EXTD=YEAR: 2003 ID3G: 0
EXTT0=
EXTT1=
EXTT2=
EXTT3=
EXTT4=
EXTT5=
EXTT6=
EXTT7=
EXTT8=
PLAYORDER=
